<svg width="540" height="448" viewBox="0 0 540 448" fill="none" xmlns="http://www.w3.org/2000/svg">
<path d="M490.503 138.751H436.592C443.927 148.173 448.34 159.981 448.34 172.803V288.496C448.34 319.089 423.293 344.076 392.76 344.076H256.91C264.126 362.563 282.076 375.743 303.068 375.743H490.503C517.696 375.743 540 353.498 540 326.245V188.248C539.94 160.995 517.696 138.751 490.503 138.751Z" fill="#AEE239"/>
<path d="M427.826 257.187V80.6062C427.826 36.3567 391.627 0.157898 347.377 0.157898H80.4484C36.1988 0.157898 0 36.3567 0 80.6062V257.187C0 299.23 32.6803 333.938 73.8288 337.337C73.8288 337.337 61.9017 430.011 76.751 430.011C91.6002 430.011 189.104 337.635 189.104 337.635H347.318C391.627 337.635 427.826 301.437 427.826 257.187ZM174.911 301.854L164.535 311.634C164.356 311.813 143.96 331.135 120.881 351.65C115.812 356.122 111.22 360.178 106.986 363.875C108.119 351.411 109.312 342.048 109.312 341.929L114.083 304.776L76.751 301.675C53.7913 299.767 35.7813 280.206 35.7813 257.187V80.6062C35.7813 68.7388 40.4329 57.5869 48.9608 49.1187C57.429 40.6504 68.6405 35.9392 80.4484 35.9392H347.377C359.245 35.9392 370.396 40.5908 378.865 49.1187C387.333 57.5869 392.044 68.7984 392.044 80.6062V257.187C392.044 269.055 387.393 280.206 378.865 288.675C370.396 297.143 359.185 301.854 347.377 301.854H174.911Z" fill="#F9F2E7"/>
<path d="M457.405 111.378C447.744 109.41 438.262 115.612 436.294 125.273C434.326 134.934 440.529 144.416 450.19 146.384C473.447 151.155 490.324 171.849 490.324 195.584V301.139C490.324 325.947 471.778 347.356 447.208 350.875L427.707 353.678L432.358 372.821C433.551 377.651 434.684 382.839 435.817 387.908C425.321 378.128 413.573 366.917 402.899 356.48L397.71 351.352H297.701C284.641 351.352 275.875 350.517 269.553 346.223C261.383 340.677 250.232 342.764 244.685 350.934C239.139 359.104 241.227 370.256 249.397 375.802C264.723 386.239 282.375 387.133 297.701 387.133H383.1C389.063 392.918 399.38 402.817 409.936 412.657C419.596 421.662 427.588 428.818 433.67 434.066C445.598 444.204 451.144 447.842 458.479 447.842C464.263 447.842 469.631 445.218 473.268 440.626C479.292 432.933 479.351 423.272 473.567 393.693C472.732 389.399 471.837 385.225 471.002 381.408C503.444 368.825 526.106 337.099 526.106 301.139V195.584C526.165 155.031 497.242 119.608 457.405 111.378Z" fill="#F9F2E7"/>
<path d="M221.426 269.353C200.017 269.353 179.085 259.155 162.506 240.668C147.836 224.268 139.069 203.932 139.069 186.161V168.449L156.781 168.27C157.02 168.27 178.369 168.032 213.673 168.032C223.573 168.032 231.564 176.023 231.564 185.923C231.564 195.822 223.573 203.813 213.673 203.813C200.375 203.813 189.104 203.873 180.158 203.873C182.424 208.107 185.406 212.52 189.163 216.754C198.705 227.429 210.453 233.512 221.426 233.512C232.399 233.512 244.147 227.369 253.689 216.754C257.565 212.401 260.607 207.868 262.873 203.515C254.703 201.845 248.501 194.57 248.56 185.923C248.62 176.083 256.611 168.091 266.451 168.091H266.511C282.672 168.151 285.892 168.211 286.548 168.27L303.783 168.926V186.161C303.783 203.932 295.016 224.268 280.346 240.668C263.708 259.155 242.835 269.353 221.426 269.353Z" fill="#AEE239"/>
</svg>
